<svg xmlns="http://www.w3.org/2000/svg" width="54.767" height="9.958" xmlns:v="https://vecta.io/nano"><path d="M44.1 9.958V0h10.667v9.958zm-11.38 0V0h10.667v9.958zm-10.67 0V0h9.958v9.958zm-11.38 0V0h10.666v9.958zM0 9.958V0h9.958v9.958z" fill="#00b67a"/><path d="M49.807 6.68l1.554-.394.65 2zm-11.666 0l1.554-.394.65 2zm-11.07 0l1.554-.394.65 2zM16 6.68l1.554-.395.65 2zm-11.07 0l1.553-.395.65 2zm43.513-1l-2.214-1.6h2.735l.84-2.573.84 2.576h2.736l-2.2 1.6-1.363.98-2.214 1.6zm-11.666 0l-2.214-1.6H37.3l.84-2.573.84 2.576h2.736l-2.2 1.6-1.362.976-2.214 1.6zm-11.07 0l-2.214-1.6h2.736l.84-2.573.84 2.576h2.735l-2.2 1.6-1.362.98-2.214 1.6zm-11.07 0l-2.214-1.6h2.736L16 1.516l.84 2.576h2.735l-2.2 1.6-1.362.98-2.214 1.6zm-11.07 0L1.355 4.092H4.1l.84-2.576.84 2.576h2.736l-2.2 1.6-1.363.98-2.214 1.6z" fill="#fff"/></svg>