<svg xmlns="http://www.w3.org/2000/svg" viewBox="0 0 339.9 32.4" xmlns:v="https://vecta.io/nano"><path d="M0 26.277l11.3 1.6v-10.7H0v9.1zm0-10.5h11.3v-10.9L0 6.477v9.3zm12.5 12.3l15 2.1v-13h-15v10.9zm0-23.4v11h15v-13.1l-15 2.1zm49.8 6.1v-.3l-.8.1c-.2 0-.4.1-.5.1-.2.1-.2.4-.1.6l.1.1c.1.1.3.1.5.1.1 0 .2 0 .4-.1.1 0 .2-.1.3-.2l.2-.2c-.1 0-.1-.1-.1-.2h0zm-1.6-10.8c-8.9-.1-16.2 7.1-16.3 16.1-.1 8.9 7.1 16.2 16.1 16.3h.3c8.9.1 16.2-7.1 16.3-16.1S70 .077 61-.023h-.3zm3.1 9.6l.3-.6c.1-.2.3-.3.5-.4.4-.2.8-.2 1.3 0 .2.1.3.1.5.3.1.1.2.2.3.4.1.1.1.3.1.5h-.7c0-.1 0-.2-.1-.3 0-.1-.1-.1-.2-.2s-.2-.1-.2-.1h-.3c-.1 0-.3 0-.4.1s-.2.1-.3.2-.1.2-.2.4c0 .2-.1.3-.1.5a.9.9 0 0 0 .1.5.76.76 0 0 0 .2.4c.1.1.2.2.3.2.1.1.2.1.4.1s.4 0 .5-.2c.1-.1.2-.3.3-.5h.7c0 .2-.1.3-.2.5-.1.1-.2.3-.3.4s-.3.2-.5.2c-.2.1-.4.1-.6.1s-.5 0-.7-.1-.4-.2-.5-.3c-.1-.2-.3-.3-.3-.5-.1-.2-.1-.5-.1-.7.1-.4.2-.7.2-.9h0zm-9.3-1h.7v.6h0c0-.1.1-.2.2-.3l.2-.2c.1-.1.2-.1.3-.1h.3c.2 0 .4.1.6.2s.3.3.4.5h0c0-.1.1-.2.2-.3s.2-.1.2-.2c.1-.1.2-.1.3-.1h.4a.9.9 0 0 1 .5.1.76.76 0 0 1 .4.2c.1.1.2.2.2.4.1.1.1.3.1.5v2.3h-.7v-2.2c0-.2-.1-.4-.2-.5s-.3-.2-.5-.2c-.1 0-.2 0-.3.1-.1 0-.2.1-.2.2-.1.1-.1.1-.1.2s-.1.2-.1.3v2.1h-.7v-2.2-.3c-.1-.2-.2-.3-.3-.3h-.3c-.1 0-.2 0-.3.1-.1 0-.2.1-.2.2-.1.1-.1.2-.2.2 0 .1-.1.2-.1.3v2.1h-.7l-.1-3.7zm1.5 16.4c-3 0-4.9-2.1-4.9-5.4s1.9-5.4 4.9-5.4 4.9 2.1 4.9 5.4-1.9 5.4-4.9 5.4zm5.6-13h-.3c-.2 0-.3 0-.5-.1a.76.76 0 0 1-.4-.2c-.1-.1-.2-.2-.2-.3-.1-.1-.1-.3-.1-.4 0-.3.1-.5.3-.7a1.69 1.69 0 0 1 1-.3l.9-.1v-.3c0-.2-.1-.3-.2-.4-.2-.1-.3-.2-.5-.2h-.3c-.1 0-.1.1-.2.1s-.1.1-.2.2-.1.1-.1.2h-.6c0-.1 0-.3.1-.4l.3-.3a.76.76 0 0 1 .4-.2c.2-.1.4-.1.5-.1.2 0 .4 0 .6.1.2 0 .3.1.4.2s.2.2.3.4c.1.1.1.3.1.5v2.3h-.7v-.6h0c0 .1-.1.2-.2.2-.1.1-.2.1-.3.2.1.2 0 .2-.1.2h0zm4.3 13c-2.3 0-3.9-1.2-4-3.1h1.5c.1 1.1 1.2 1.8 2.6 1.8s2.4-.7 2.4-1.7c0-.8-.6-1.3-2-1.7l-1.4-.3c-1.9-.5-2.8-1.4-2.8-2.8 0-1.8 1.6-3 3.8-3s3.7 1.2 3.8 3h-1.5c-.1-1.1-1-1.7-2.3-1.7s-2.2.7-2.2 1.6c0 .8.6 1.2 2 1.6l1.1.3c2.2.5 3.1 1.4 3.1 2.9-.1 1.8-1.6 3.1-4.1 3.1h0zm-9.9-9.5c-2.1 0-3.4 1.6-3.4 4.1s1.3 4.1 3.4 4.1 3.4-1.6 3.4-4.1c-.1-2.5-1.4-4.1-3.4-4.1zm60.6 9.2c-.8-.3-1.2-.8-1.1-1.5 0-.6-.2-1.2-.6-1.6a7.31 7.31 0 0 0 0-3.6c-1-2.2-2.3-4.3-3.8-6.3-.6-1-.8-2.1-.8-3.2 0-1.3-.2-2.7-.7-3.9-.6-1.5-2.2-2.5-3.8-2.5-1 0-2.1.3-2.9.9-1.7 1.2-1.5 3.7-1.3 5.4 0 .2 0 .4.1.6.1.9.1 1.9-.1 2.8-.3.4-.5.8-.8 1.2-.4.5-.9 1.1-1.2 1.7a15.95 15.95 0 0 0-1.2 2.7c-.2.6-.4 1.2-.7 1.8s-.4 1.3-.2 1.9c-.3.2-.5.5-.6.8-.2.5-.8.8-1.8 1-.4 0-.8.3-1 .6-.2.4-.2.9 0 1.4.1.5.1 1.1-.1 1.5 0 .1-.1.3-.2.5-.1.3-.1.6.1.8.4.6 1.6.8 2.8 1 .8.1 1.5.3 2.3.6.7.3 1.4.5 2.2.6h.3c.7 0 1.4-.4 1.7-1 1-.2 2-.3 3-.4 1 0 2 .1 3 .3.2.4.5.7.9 1 .3.2.7.2 1 .2h0c.7 0 1.3-.3 1.8-.7 1-.8 2.1-1.5 3.2-2.1.2-.1.5-.3.7-.4.6-.2.9-.8.9-1.4-.4-.2-.7-.5-1.1-.7zm-13.9-.1c-.1-.5-.8-1.1-1.6-1.7a6.09 6.09 0 0 1-1.6-1.6c-.3-1.3-.2-2.6.5-3.7.3-.6.6-1.2.8-1.8s.4-1.3.8-1.8c.5-.7.9-1.5 1-2.3.4.5 1 .8 1.7.9h.3c.6-.2 1.1-.5 1.6-.8.4-.3.9-.5 1.4-.7 1.3 2.4 2.3 4.9 3 7.5.1 1 .1 1.9-.1 2.9h-.3c-.7 0-.8.4-.9.6-.1.9-.1 1.8-.1 2.8-.8 1-1.9 1.7-3.2 2-.7.1-1.3.2-2 .2-.3 0-.6 0-1-.1l-.9-1c.5-.4.7-.9.6-1.4h0zm1.1-16.5c-.1 0-.1-.1-.1-.1 0-.5-.4-.9-.9-.9h-.1c-.3.1-.5.2-.5.5.1-.6.4-1 .8-1s.8.6.8 1.3c.1 0 .1.1 0 .2zm3.5.4c0-.1.1-.3.1-.4.1-.6-.4-1.1-.9-1.2-.6.1-1 .6-.9 1.2v.1h-.1c-.1-.2-.1-.4-.1-.6-.1-.6.2-1.2.8-1.4.6-.1 1.2.2 1.4.8v.5a1.69 1.69 0 0 1-.3 1h0zm-.4 1.5s0 .1-.2.2c-.1.1-.2.1-.4.2l-.1.1c-.5.4-1.1.7-1.7.9-.2 0-.3 0-.6-.2-.1 0-.1-.1-.2-.1-.3-.2-.6-.5-.8-.8.2-.1.5-.4.7-.6.3-.3.6-.5 1-.6h0c.4.1.8.3 1.2.4.2.1.4.1.5.2.2 0 .4.1.6.3h0zm3.3 17.1c.2-1 .4-2 .4-3v-.5-1h0c-.1.6.2 1.2.8 1.6.2.1.5.1.7.1.6 0 1.3-.2 1.8-.6.2-.2.3-.4.4-.6v.3c-.1.7.3 1.4.9 1.8h.1c.2.1.8.4.8.5-.3.2-.7.4-1.1.6-.8.4-1.5.8-2.2 1.4-.4.5-1 .9-1.7 1.1h-.1c-.7-.1-1-.7-.8-1.7h0zm-15.2-2.3c-.1-.2-.1-.4 0-.5 0-.1.6-.2.9-.3s.7-.2 1-.3c.3-.2.5-.5.7-.9.1-.2.2-.4.4-.6.3 0 .8.5 1.1 1 .1.1.2.4.4.7.5.8 1 1.7 1.6 2.4.3.4.9 1 .7 1.6-.1.4-.4.7-.7.9h-.2c-1-.2-1.9-.5-2.8-.9H98c-.6-.2-1.2-.3-1.8-.4-.5 0-.9-.1-1.4-.3-.1-.1 0-.5.1-.8.1-.2.1-.5.2-.7 0-.3 0-.6-.1-.9zm39.9.7c-1.1 0-2 1-2 2.1v.1c-.1 1.1.8 2.1 1.9 2.2h.1c.5 0 1-.2 1.3-.6v.3c0 .1.1.3.3.3h.7v-4.2h-.9v.5c-.4-.5-.9-.7-1.4-.7zm.1.9c.7 0 1.3.6 1.2 1.3 0 .7-.5 1.3-1.2 1.3s-1.2-.6-1.2-1.3.5-1.3 1.2-1.3h0zm3.4 3.4c-.1 0-.3-.1-.3-.3v-3.9h.9v.5c.3-.4.8-.6 1.3-.6.9 0 1.6.7 1.6 1.5v.1 2.7h-.6c-.2 0-.3-.1-.3-.3v-2.2c0-.5-.3-.9-.8-.9-.6 0-1.1.6-1 1.2v2.2h-.8zm6.3-4.3c-1.1 0-2 1-2 2.1v.1c-.1 1.1.8 2.1 1.9 2.2h.1c.5 0 1-.2 1.3-.6v.3c0 .1.1.3.3.3h.7v-6.3h-.9v2.6c-.4-.5-.9-.7-1.4-.7zm.1.9c.7 0 1.3.6 1.2 1.3 0 .7-.5 1.3-1.2 1.3s-1.2-.6-1.2-1.3.5-1.3 1.2-1.3zm3.4 3.4c-.1 0-.3-.1-.3-.3v-3.9h.9v.7c.2-.5.6-.8 1.1-.7h.3v1c-.1-.1-.3-.1-.4-.1-.6 0-1.1.6-1 1.2v2.1h-.6zm7.8 0c-.1 0-.3-.1-.3-.3v-3.9h.9v4.2h-.6zm3.4-4.3c-1.1 0-2 1-2 2.1v.1c-.1 1.1.8 2.1 1.9 2.2h.1c.5 0 1-.2 1.3-.6v.3c0 .1.1.3.3.3h.7v-6.3h-.9v2.6c-.4-.5-.9-.7-1.4-.7zm.2.9c.7 0 1.3.6 1.2 1.3 0 .7-.5 1.3-1.2 1.3s-1.2-.6-1.2-1.3c-.1-.7.4-1.3 1.2-1.3-.1 0 0 0 0 0h0zm-3.4-2.9a.65.65 0 0 1 .6.6.65.65 0 0 1-.6.6.65.65 0 0 1-.6-.6.65.65 0 0 1 .6-.6zm-3.4 2c-1.2 0-2.2.9-2.2 2.1v.1c0 1.2.9 2.1 2.1 2.2h.1c1.2 0 2.2-.9 2.2-2.1v-.1c0-1.2-.9-2.2-2.2-2.2zm0 .9c.7 0 1.3.6 1.3 1.3s-.5 1.3-1.2 1.3-1.3-.6-1.2-1.3c-.2-.7.4-1.3 1.1-1.3h0zm1.5-16.8l2.4-4.1c.1-.2.1-.5-.2-.7-.2-.1-.5-.1-.7.2l-2.4 4.2c-3.9-1.8-8.4-1.8-12.3 0l-2.4-4.2c-.1-.2-.4-.3-.7-.2-.2.1-.3.4-.2.6l2.4 4.1c-4.2 2.3-7 6.5-7.4 11.3h28.8c-.3-4.7-3.1-8.9-7.3-11.2zm-13.6 7.2c-.7 0-1.2-.5-1.2-1.2s.5-1.2 1.2-1.2 1.2.5 1.2 1.2-.6 1.2-1.2 1.2zm13.2 0c-.7 0-1.2-.5-1.2-1.2s.5-1.2 1.2-1.2 1.2.5 1.2 1.2-.5 1.2-1.2 1.2h0zm42.2-16.5h.2c.2 1.7-.4 3.5-1.6 4.8-1 1.4-2.6 2.2-4.3 2-.1-1.7.5-3.4 1.6-4.6 1-1.1 2.5-1.9 4.1-2.2zm6.3 21.7h0c-.6 1.8-1.4 3.4-2.5 4.8-.9 1.3-2.1 3-4.1 3-1.8 0-2.9-1.1-4.8-1.2-1.9 0-3 1-4.7 1.2h-.6c-1.3-.3-2.3-1.1-3.1-2.1-2.5-3-4-6.8-4.3-10.7v-1.3c0-2.8 1.4-5.5 3.8-7.1 1.3-.8 2.8-1.2 4.3-1a8.3 8.3 0 0 1 2.1.6c.7.3 1.4.6 2.1.6.5-.1 1-.2 1.5-.4 1.5-.7 3.1-1 4.7-.8 2 .2 3.7 1.2 4.8 2.9-2.2 1.2-3.4 3.6-3.1 6.1.2 2.4 1.7 4.5 3.9 5.4zm30.4 10.1l6.5-11.2h0c1.6-2.7 1-6.1-1.2-8.2h9.4c2.7 7.6-1.3 16-9 18.7-1.6.5-3.2.8-4.8.8-.3-.1-.6-.1-.9-.1zm-9.5-4.2c-4.9-4.9-5.7-12.6-1.9-18.4l6.5 11.2a6.45 6.45 0 0 0 7.7 3l-4.7 8.1c-2.8-.4-5.5-1.9-7.6-3.9h0zm5.4-10.3c0-2.7 2.2-4.8 4.8-4.8 2.7 0 4.8 2.2 4.8 4.8 0 2.7-2.2 4.8-4.8 4.8h0c-2.6.1-4.8-2.1-4.8-4.8h0zm-6.1-9.6c.2-.3.5-.6.8-.8 5.7-5.7 15-5.7 20.7 0 1.1 1.1 2 2.4 2.7 3.8h-13.1c-3.1 0-5.8 2.2-6.4 5.2l-4.7-8.2zm71.2 7.5c-.3-4-3.5-6.8-4.9-10.3l-.6 1.3c-1.2-.9-3-2.4-3.5-3.8-.6.5-1.2 1.5-1.8 1.7-4.6-1.3-9.6 0-13 3.3-.5-.7-.7-1.5-.8-2.4-1.4 1.2-2 3.1-2.1 4.9-.7 1.6-2 3-2.2 4.9-1.8 8.4 5.2 16.7 13.6 17.1 8.8.7 16.8-7.8 15.3-16.7zm-7.3 3c-.4 5.2-8.2 9-11.4 4 1.2.1 2.4.3 3.5-.2.9-.3 1.7-1.2 2.7-1 1.5-.3-.4-1.8-1.1-1.8-1.6-.4-3.2 1-4.8 0-1.1-.6-2.4-2.3-1.2-3.3.3-.2 1.2.5 1.5.6.4-.5.6-1.2.4-1.9 0-1.1 2.2-1 2.7-1.9 1.1-1.5-.3-1.4-1.4-1.6-3.5-.3-.8-3 .8-3.9h0c-1.4-.3-3-.1-4.2.8-.4.4-.7.3-1.2.1 2.7-1.9 6-2.5 9.2-1.7-1.6 6.3 5.4 6.3 4.5 11.8zm30.4 1.7h0c-.5-2-.5-4 0-5.9v-.1c1.6-6.2 7-10.6 13.3-11-7.7-2.9-16.3 1-19.3 8.7-2.9 7.7 1 16.3 8.7 19.3 1.7.6 3.5 1 5.3 1s3.6-.3 5.3-1c-6.3-.4-11.7-4.8-13.3-11zm17-14.9c-.8-.1-1.6-.2-2.4-.2-2.5 0-4.9.7-7 1.9h.4c4.6 0 8.4 4.6 8.4 10.3s-3.8 10.3-8.4 10.3h-.4c2.1 1.2 4.5 1.9 7 1.9.8 0 1.6-.1 2.4-.2 6.6-4.9 7.9-14.3 3-20.8-.8-1.3-1.8-2.4-3-3.2h0z" opacity=".6" fill="#5d606f"/></svg>