<svg xmlns="http://www.w3.org/2000/svg" xmlns:xlink="http://www.w3.org/1999/xlink" width="343.893" height="103.745" viewBox="0 0 343.893 103.745">
  <defs>
    <linearGradient id="linear-gradient" x1="0.497" y1="0.034" x2="0.501" y2="0.994" gradientUnits="objectBoundingBox">
      <stop offset="0" stop-color="#70e076"/>
      <stop offset="0.602" stop-color="#4a9e41"/>
      <stop offset="1" stop-color="#3ea74a"/>
    </linearGradient>
    <linearGradient id="linear-gradient-2" x1="0.5" y1="0.98" x2="0.5" y2="0.027" gradientUnits="objectBoundingBox">
      <stop offset="0" stop-color="#4a9e41"/>
      <stop offset="1" stop-color="#70e076"/>
    </linearGradient>
    <linearGradient id="linear-gradient-3" x1="0.5" y1="0.969" x2="0.5" y2="0.011" gradientUnits="objectBoundingBox">
      <stop offset="0" stop-color="#70e076"/>
      <stop offset="1" stop-color="#4a9e41"/>
    </linearGradient>
    <radialGradient id="radial-gradient" cx="0.5" cy="0.5" r="0.467" gradientUnits="objectBoundingBox">
      <stop offset="0" stop-color="#3e7f34" stop-opacity="0.788"/>
      <stop offset="1" stop-color="#3e7f34" stop-opacity="0"/>
    </radialGradient>
  </defs>
  <g id="Group_47965" data-name="Group 47965" transform="translate(-1339 -197.344)">
    <g id="Group_47963" data-name="Group 47963">
      <path id="Path_30" data-name="Path 30" d="M673.19,171.379v-5.337a19.777,19.777,0,1,1,39.553.132v5.2h10.408v-5.337a30.185,30.185,0,1,0-60.369,0v5.337Z" transform="translate(684.522 61.486)" fill="url(#linear-gradient)"/>
      <path id="Path_31" data-name="Path 31" d="M728.645,176.1a6.25,6.25,0,0,0-6.245-6.245H708.868a6.211,6.211,0,0,0-4.652,2.082H682.285a6.207,6.207,0,0,0-4.642-2.082H664.112a6.243,6.243,0,0,0-6.245,6.245,10.4,10.4,0,0,0-2.082,6.245V219.82a10.4,10.4,0,0,0,7.515,9.992,6.238,6.238,0,0,0,6.016,4.58h9.368a6.246,6.246,0,0,0,5.881-4.163h17.382a6.235,6.235,0,0,0,5.881,4.163H717.2a6.226,6.226,0,0,0,6.005-4.58,10.406,10.406,0,0,0,7.525-9.992V182.349A10.4,10.4,0,0,0,728.645,176.1Zm-31.121,25.137a1,1,0,0,0-.458,1.051l2.321,13.188a1.035,1.035,0,0,1-1.02,1.218H688.135a1.035,1.035,0,0,1-1.02-1.218l2.332-13.188a1.073,1.073,0,0,0-.531-1.093,8.463,8.463,0,1,1,8.608.042Z" transform="translate(684.237 62.875)" fill="url(#linear-gradient-2)"/>
      <path id="Path_32" data-name="Path 32" d="M687.548,158.913a3.383,3.383,0,1,0-3.373,3.373A3.384,3.384,0,0,0,687.548,158.913Zm12.76-3.392a3.383,3.383,0,1,0,3.373,3.392A3.388,3.388,0,0,0,700.307,155.521Zm-3.6,8.981a6.508,6.508,0,0,1-8.941,0,1.041,1.041,0,0,0-1.47,1.474,8.588,8.588,0,0,0,11.88,0,1.041,1.041,0,0,0-1.47-1.475Z" transform="translate(685.258 62.289)" fill="#88e47b"/>
      <path id="Path_33" data-name="Path 33" d="M699.392,202.6a11.6,11.6,0,0,0-7.151-20.744,10.289,10.289,0,0,0-1.384.083A11.6,11.6,0,0,0,685.08,202.6L683,214.4a4.195,4.195,0,0,0,4.132,4.934h10.211a4.2,4.2,0,0,0,4.132-4.934Zm-2.04,13.6H687.12a1.035,1.035,0,0,1-1.02-1.218l2.332-13.188a1.073,1.073,0,0,0-.531-1.093,8.463,8.463,0,1,1,8.608.042,1,1,0,0,0-.458,1.051l2.321,13.188A1.035,1.035,0,0,1,697.351,216.207Z" transform="translate(685.252 63.365)" fill="url(#linear-gradient-3)"/>
      <ellipse id="Ellipse_15" data-name="Ellipse 15" cx="38.487" cy="3.419" rx="38.487" ry="3.419" transform="translate(1339 294.251)" opacity="0.28" fill="url(#radial-gradient)"/>
    </g>
    <g id="Group_47964" data-name="Group 47964">
      <path id="Path_8" data-name="Path 8" d="M1102.782,586.545q-1.871-5.445-3.74-10.57t-3.452-9.157a3.452,3.452,0,0,0-2.228-1.979,11.494,11.494,0,0,0-3.739-.567,12.425,12.425,0,0,0-3.092.389,9.106,9.106,0,0,0-2.229.814q-1.44,3.6-3.379,8.661t-3.847,10.288q-1.905,5.233-3.6,9.934t-2.624,7.672c-.241.613-.432,1.166-.575,1.661a5.432,5.432,0,0,0-.217,1.52,2.628,2.628,0,0,0,1.152,2.334,5.161,5.161,0,0,0,2.947.777,9.127,9.127,0,0,0,1.727-.141,6.714,6.714,0,0,0,1.365-.423l3.523-10.818h17.546l2.731,8.131a5.528,5.528,0,0,0,1.439,2.51,4.27,4.27,0,0,0,2.8.742,6.119,6.119,0,0,0,2.479-.459,4.963,4.963,0,0,0,1.691-1.166q-1.367-4.243-3.092-9.475T1102.782,586.545Zm-20.279,4.313q.865-2.545,1.8-5.267t1.869-5.374q.933-2.651,1.8-5.056t1.583-4.313h.358q.5,1.629,1.3,3.924t1.689,4.914q.9,2.618,1.87,5.48t1.905,5.692Zm64.932,8.345a21.657,21.657,0,0,1-4.459,2.261,17.054,17.054,0,0,1-6.112.99,14.236,14.236,0,0,1-10.642-4.1q-4.028-4.1-4.027-12.091a20.9,20.9,0,0,1,1.078-7,14.479,14.479,0,0,1,2.985-5.091,12.5,12.5,0,0,1,4.529-3.112,15.317,15.317,0,0,1,5.789-1.06,15.138,15.138,0,0,1,6.075,1.06,31.281,31.281,0,0,1,4.279,2.263,4.164,4.164,0,0,0,1.618-1.343,3.341,3.341,0,0,0-.288-4.384,8.261,8.261,0,0,0-2.732-1.98,18.915,18.915,0,0,0-4.242-1.379,26.73,26.73,0,0,0-5.573-.53,23.455,23.455,0,0,0-8.269,1.45,19.359,19.359,0,0,0-6.795,4.278,20.406,20.406,0,0,0-4.639,7.071,25.736,25.736,0,0,0-1.726,9.757,26.36,26.36,0,0,0,1.69,9.864,19.459,19.459,0,0,0,4.637,7,19,19,0,0,0,6.9,4.171,28.788,28.788,0,0,0,15.459.6,17.041,17.041,0,0,0,4.315-1.767,4.961,4.961,0,0,0,1.761-1.556,3.354,3.354,0,0,0,.539-1.838,3.461,3.461,0,0,0-.683-2.121A5.547,5.547,0,0,0,1147.435,599.2Zm41.2,0a21.642,21.642,0,0,1-4.458,2.261,17.05,17.05,0,0,1-6.112.99,14.237,14.237,0,0,1-10.642-4.1q-4.028-4.1-4.027-12.091a20.91,20.91,0,0,1,1.079-7,14.493,14.493,0,0,1,2.985-5.091,12.5,12.5,0,0,1,4.529-3.112,15.321,15.321,0,0,1,5.789-1.06,15.134,15.134,0,0,1,6.075,1.06,31.285,31.285,0,0,1,4.279,2.263,4.161,4.161,0,0,0,1.618-1.343,3.342,3.342,0,0,0-.288-4.384,8.261,8.261,0,0,0-2.732-1.98,18.916,18.916,0,0,0-4.242-1.379,26.729,26.729,0,0,0-5.573-.53,23.462,23.462,0,0,0-8.269,1.45,19.353,19.353,0,0,0-6.794,4.278,20.406,20.406,0,0,0-4.639,7.071,25.736,25.736,0,0,0-1.725,9.757,26.361,26.361,0,0,0,1.689,9.864,19.478,19.478,0,0,0,4.637,7,19,19,0,0,0,6.9,4.171,28.786,28.786,0,0,0,15.459.6,17.036,17.036,0,0,0,4.315-1.767,4.965,4.965,0,0,0,1.761-1.556,3.354,3.354,0,0,0,.539-1.838,3.466,3.466,0,0,0-.683-2.121A5.534,5.534,0,0,0,1188.637,599.2Zm39.476,2.4H1207.4V588.737h16.249a2.728,2.728,0,0,0,2.051-.777,3.343,3.343,0,0,0,.755-2.4,5.479,5.479,0,0,0-.253-1.7,3.559,3.559,0,0,0-.611-1.2H1207.4V570.919h18.407a2.606,2.606,0,0,0,2.049-.849,3.5,3.5,0,0,0,.755-2.4,5.511,5.511,0,0,0-.251-1.7,3.571,3.571,0,0,0-.612-1.2h-23.8a4.2,4.2,0,0,0-3.02,1.1,3.864,3.864,0,0,0-1.15,2.936v34.858a3.975,3.975,0,0,0,1.15,2.97,4.12,4.12,0,0,0,3.02,1.132h22.218a2.656,2.656,0,0,0,2.049-.813,3.472,3.472,0,0,0,.756-2.439,4.877,4.877,0,0,0-.288-1.7A5.8,5.8,0,0,0,1228.112,601.606Zm26.533-18.95-4.17-1.2a13.338,13.338,0,0,1-4.962-2.3,4.32,4.32,0,0,1-1.51-3.43,4.887,4.887,0,0,1,2.158-4.171,10.325,10.325,0,0,1,6.11-1.556,20.549,20.549,0,0,1,6.437.956,16.377,16.377,0,0,1,4.709,2.3,5.34,5.34,0,0,0,1.474-1.45,3.575,3.575,0,0,0,.611-2.086,3.389,3.389,0,0,0-1.043-2.368,8.906,8.906,0,0,0-2.876-1.911,19.468,19.468,0,0,0-4.35-1.272,30.489,30.489,0,0,0-5.464-.459q-7.192,0-11.4,3.218a10.481,10.481,0,0,0-4.206,8.8,11.583,11.583,0,0,0,.755,4.349,9.213,9.213,0,0,0,2.192,3.252,14.106,14.106,0,0,0,3.488,2.4,29.846,29.846,0,0,0,4.566,1.8l5.393,1.626a13.126,13.126,0,0,1,5.249,2.616,5.368,5.368,0,0,1,1.654,4.1,5.937,5.937,0,0,1-2.157,4.737q-2.157,1.839-6.687,1.838a16.57,16.57,0,0,1-7.154-1.414,19.511,19.511,0,0,1-4.71-2.969,5.563,5.563,0,0,0-2.013,1.485,3.534,3.534,0,0,0-.863,2.4,3.767,3.767,0,0,0,1.078,2.546,9.315,9.315,0,0,0,3.056,2.121,21.658,21.658,0,0,0,4.709,1.485,29.959,29.959,0,0,0,6.04.565,25.2,25.2,0,0,0,7.083-.918,14.735,14.735,0,0,0,5.213-2.617,11.5,11.5,0,0,0,3.2-4.066,12.063,12.063,0,0,0,1.114-5.2,10.825,10.825,0,0,0-3.344-8.38A23.369,23.369,0,0,0,1254.645,582.656Zm47.565,4.843a23.383,23.383,0,0,0-9.384-4.843l-4.17-1.2a13.348,13.348,0,0,1-4.961-2.3,4.321,4.321,0,0,1-1.51-3.43,4.888,4.888,0,0,1,2.158-4.171,10.329,10.329,0,0,1,6.111-1.556,20.549,20.549,0,0,1,6.435.956,16.372,16.372,0,0,1,4.709,2.3,5.307,5.307,0,0,0,1.474-1.45,3.578,3.578,0,0,0,.612-2.086,3.391,3.391,0,0,0-1.043-2.368,8.935,8.935,0,0,0-2.877-1.911,19.481,19.481,0,0,0-4.349-1.272,30.51,30.51,0,0,0-5.465-.459q-7.192,0-11.4,3.218a10.483,10.483,0,0,0-4.206,8.8,11.578,11.578,0,0,0,.755,4.349,9.227,9.227,0,0,0,2.194,3.252,14.059,14.059,0,0,0,3.487,2.4,29.789,29.789,0,0,0,4.566,1.8l5.393,1.626a13.113,13.113,0,0,1,5.249,2.616,5.369,5.369,0,0,1,1.655,4.1,5.938,5.938,0,0,1-2.158,4.737q-2.156,1.839-6.687,1.838a16.577,16.577,0,0,1-7.155-1.414,19.536,19.536,0,0,1-4.709-2.969,5.569,5.569,0,0,0-2.013,1.485,3.534,3.534,0,0,0-.863,2.4,3.769,3.769,0,0,0,1.079,2.546,9.319,9.319,0,0,0,3.056,2.121,21.654,21.654,0,0,0,4.71,1.485,29.963,29.963,0,0,0,6.04.565,25.2,25.2,0,0,0,7.083-.918,14.763,14.763,0,0,0,5.213-2.617,11.5,11.5,0,0,0,3.2-4.066,12.046,12.046,0,0,0,1.115-5.2A10.829,10.829,0,0,0,1302.21,587.5Z" transform="translate(360.363 -313.371)" fill="#f2f2f4"/>
      <path id="Path_9" data-name="Path 9" d="M1076.6,533.861q-1.384,0-2.857.14a12.892,12.892,0,0,0-2.5.454,1.969,1.969,0,0,0-.888.471,1.193,1.193,0,0,0-.285.857v18.576q0,1.292,1.563,1.291a3.252,3.252,0,0,0,.781-.087c.236-.057.426-.11.568-.157V547.9h3.586q4.438,0,6.568-1.937a6.662,6.662,0,0,0,2.131-5.185,6.444,6.444,0,0,0-2.077-5.045Q1081.109,533.862,1076.6,533.861Zm4.19,10.51a7.3,7.3,0,0,1-4.4,1.153h-3.444V536.55q.745-.139,1.686-.227t1.9-.087a7.244,7.244,0,0,1,4.315,1.1,4.01,4.01,0,0,1,1.509,3.475A4.131,4.131,0,0,1,1080.788,544.372Zm15.588-5.481a13.41,13.41,0,0,0-3.568.436,9.217,9.217,0,0,0-2.5,1.03,3.227,3.227,0,0,0-1.013.926,2.332,2.332,0,0,0-.3,1.274v11.836q0,1.257,1.526,1.257a3.26,3.26,0,0,0,.781-.087,4.468,4.468,0,0,0,.533-.157V542.348a9.148,9.148,0,0,1,2.059-.787,11.22,11.22,0,0,1,2.877-.331,9.384,9.384,0,0,1,1.135.069q.568.07.924.14a1.626,1.626,0,0,0,.283-.506,1.9,1.9,0,0,0,.107-.647Q1099.217,538.89,1096.376,538.891Zm7.777-6.391a1.82,1.82,0,0,0-1.331.506,1.75,1.75,0,0,0,0,2.479,1.816,1.816,0,0,0,1.331.507,1.756,1.756,0,0,0,1.314-.507,1.793,1.793,0,0,0,0-2.479A1.759,1.759,0,0,0,1104.153,532.5Zm-.071,6.669a3.553,3.553,0,0,0-.8.087,4.393,4.393,0,0,0-.55.158v14.979q0,1.257,1.527,1.257a3.247,3.247,0,0,0,.781-.087,4.433,4.433,0,0,0,.532-.157V540.461Q1105.574,539.171,1104.083,539.169Zm19.317-.139a2.3,2.3,0,0,0-1.208.279q-.924,3.317-2.148,6.739T1117.4,553h-.142q-.215-.6-.551-1.433t-.675-1.727q-.338-.892-.657-1.746t-.532-1.449l-2.2-6.25a2.84,2.84,0,0,0-.621-1.048,1.381,1.381,0,0,0-.977-.313,1.906,1.906,0,0,0-.851.209,1.744,1.744,0,0,0-.675.557q.319,1.083.817,2.462t1.064,2.864q.568,1.483,1.173,2.984t1.171,2.828q.566,1.328,1.065,2.375t.817,1.641q.39.733,1.7.733a4.116,4.116,0,0,0,.941-.1,1.694,1.694,0,0,0,.621-.244q.567-1.048,1.224-2.479t1.315-2.987q.654-1.552,1.241-3.125t1.048-2.881q.46-1.308.745-2.27a5.622,5.622,0,0,0,.285-1.344,1.124,1.124,0,0,0-.373-.908A1.467,1.467,0,0,0,1123.4,539.031Zm15.729,1.221a7.964,7.964,0,0,0-4.9-1.361,13.107,13.107,0,0,0-2.7.261,8.878,8.878,0,0,0-2.2.751,2.435,2.435,0,0,0-.782.593,1.268,1.268,0,0,0-.248.8,1.147,1.147,0,0,0,.232.7,3.3,3.3,0,0,0,.515.559,15.6,15.6,0,0,1,2.343-.943,9.2,9.2,0,0,1,2.806-.419,4.674,4.674,0,0,1,2.875.8,2.982,2.982,0,0,1,1.066,2.549v.978l-5.042.49a8.35,8.35,0,0,0-4.3,1.449,4.1,4.1,0,0,0-1.528,3.474,4.29,4.29,0,0,0,1.828,3.736,8.86,8.86,0,0,0,5.167,1.293,12.725,12.725,0,0,0,3.213-.367,9.344,9.344,0,0,0,2.256-.855,2.95,2.95,0,0,0,.9-.751,1.917,1.917,0,0,0,.3-1.17v-8.276A5.024,5.024,0,0,0,1139.129,540.252Zm-.993,12.536a5.87,5.87,0,0,1-1.4.576,8.682,8.682,0,0,1-2.468.3,5.51,5.51,0,0,1-3.125-.716,2.34,2.34,0,0,1-1.03-2.042A2.2,2.2,0,0,1,1131,549a5.588,5.588,0,0,1,2.735-.821l4.4-.454Zm16.51.139a5.671,5.671,0,0,1-1.242.49,5.041,5.041,0,0,1-1.35.209,3.8,3.8,0,0,1-2.254-.578,2.266,2.266,0,0,1-.8-1.972V542h5.079q1.064,0,1.064-1.187a1.9,1.9,0,0,0-.106-.646,2.673,2.673,0,0,0-.213-.472H1149v-4.016q0-1.257-1.491-1.257a3.558,3.558,0,0,0-.8.087,4.382,4.382,0,0,0-.55.158v16.586a4.081,4.081,0,0,0,1.544,3.6,6.877,6.877,0,0,0,4.03,1.083,5.528,5.528,0,0,0,2.558-.489,1.439,1.439,0,0,0,.923-1.257,1.469,1.469,0,0,0-.177-.733A2.341,2.341,0,0,0,1154.646,552.927Zm18.11-5.778a1.453,1.453,0,0,0,.355-1.1,7.362,7.362,0,0,0-.55-2.882,6.884,6.884,0,0,0-1.527-2.269,6.746,6.746,0,0,0-2.326-1.484,8.061,8.061,0,0,0-2.947-.523,8.5,8.5,0,0,0-3.16.575,7.04,7.04,0,0,0-2.5,1.658,7.614,7.614,0,0,0-1.633,2.638,10,10,0,0,0-.585,3.543q0,4.225,2.4,6.425a9.263,9.263,0,0,0,6.516,2.2,10.818,10.818,0,0,0,2.183-.209,8.383,8.383,0,0,0,1.776-.559,3.978,3.978,0,0,0,1.207-.8,1.352,1.352,0,0,0,.443-.942,1.482,1.482,0,0,0-.851-1.327,7.979,7.979,0,0,1-1.918,1.047,7.123,7.123,0,0,1-2.7.489q-5.148,0-6.107-4.574l10.937-1.5A1.673,1.673,0,0,0,1172.756,547.149Zm-12.109-.263a6.14,6.14,0,0,1,1.491-4.242,4.752,4.752,0,0,1,3.588-1.484,4.384,4.384,0,0,1,3.319,1.239,5.088,5.088,0,0,1,1.368,3.159Z" transform="translate(360.363 -320.332)" fill="#f2f2f4"/>
      <path id="Path_10" data-name="Path 10" d="M1174.573,533.925a3.5,3.5,0,0,0-.8.088,4.259,4.259,0,0,0-.55.157v20.043q0,1.292,1.562,1.291a3.243,3.243,0,0,0,.781-.089,4.262,4.262,0,0,0,.533-.156V535.217Q1176.1,533.925,1174.573,533.925Zm14.665,4.819a12.111,12.111,0,0,0-3.444.454,10.642,10.642,0,0,0-2.45,1.013,3.149,3.149,0,0,0-1.047.925,2.188,2.188,0,0,0-.3,1.2v11.907q0,1.257,1.527,1.257a3.247,3.247,0,0,0,.781-.089,4.224,4.224,0,0,0,.532-.156V542.2a9.356,9.356,0,0,1,1.882-.8,8.342,8.342,0,0,1,2.521-.349,4.624,4.624,0,0,1,3,.907,3.472,3.472,0,0,1,1.118,2.863v9.429q0,1.257,1.527,1.257a3.32,3.32,0,0,0,.764-.089,4.08,4.08,0,0,0,.551-.156V544.68a5.322,5.322,0,0,0-1.865-4.505A8.176,8.176,0,0,0,1189.238,538.744Zm20.808,14.037a5.734,5.734,0,0,1-1.243.488,5.007,5.007,0,0,1-1.348.211,3.809,3.809,0,0,1-2.255-.578,2.264,2.264,0,0,1-.8-1.972v-9.079h5.077q1.066,0,1.066-1.186a1.907,1.907,0,0,0-.106-.647,2.666,2.666,0,0,0-.214-.471H1204.4v-4.016q0-1.257-1.491-1.257a3.47,3.47,0,0,0-.8.087,4.4,4.4,0,0,0-.551.156v16.587a4.075,4.075,0,0,0,1.545,3.595,6.867,6.867,0,0,0,4.03,1.084,5.515,5.515,0,0,0,2.556-.49,1.438,1.438,0,0,0,.924-1.257,1.467,1.467,0,0,0-.177-.733A2.406,2.406,0,0,0,1210.047,552.781Zm16.387-12.029a6.727,6.727,0,0,0-2.326-1.484,8.083,8.083,0,0,0-2.948-.524,8.523,8.523,0,0,0-3.16.575,7.055,7.055,0,0,0-2.5,1.659,7.609,7.609,0,0,0-1.634,2.638,10,10,0,0,0-.585,3.543q0,4.225,2.4,6.424a9.263,9.263,0,0,0,6.517,2.2,10.849,10.849,0,0,0,2.184-.209,8.34,8.34,0,0,0,1.774-.559,3.972,3.972,0,0,0,1.207-.8,1.348,1.348,0,0,0,.444-.943,1.48,1.48,0,0,0-.851-1.326,7.976,7.976,0,0,1-1.918,1.046,7.1,7.1,0,0,1-2.7.491q-5.149,0-6.107-4.576l10.937-1.5a1.673,1.673,0,0,0,.994-.4,1.454,1.454,0,0,0,.355-1.1,7.356,7.356,0,0,0-.551-2.881A6.9,6.9,0,0,0,1226.434,540.752Zm-10.386,5.988a6.133,6.133,0,0,1,1.491-4.242,4.752,4.752,0,0,1,3.586-1.485,4.384,4.384,0,0,1,3.32,1.24,5.092,5.092,0,0,1,1.368,3.16Zm23.969-8a13.459,13.459,0,0,0-3.569.436,9.25,9.25,0,0,0-2.5,1.031,3.261,3.261,0,0,0-1.012.925,2.335,2.335,0,0,0-.3,1.274v11.837q0,1.257,1.527,1.257a3.246,3.246,0,0,0,.781-.089,4.168,4.168,0,0,0,.532-.156V542.2a9.1,9.1,0,0,1,2.061-.787,11.158,11.158,0,0,1,2.876-.331,9.533,9.533,0,0,1,1.136.068c.378.047.686.1.924.14a1.624,1.624,0,0,0,.283-.5,1.894,1.894,0,0,0,.107-.647Q1242.858,538.744,1240.017,538.744Zm13.244,0a12.111,12.111,0,0,0-3.444.454,10.654,10.654,0,0,0-2.45,1.013,3.168,3.168,0,0,0-1.047.925,2.192,2.192,0,0,0-.3,1.2v11.907q0,1.257,1.527,1.257a3.257,3.257,0,0,0,.781-.089,4.193,4.193,0,0,0,.532-.156V542.2a9.381,9.381,0,0,1,1.882-.8,8.348,8.348,0,0,1,2.521-.349,4.627,4.627,0,0,1,3,.907,3.476,3.476,0,0,1,1.119,2.863v9.429q0,1.257,1.527,1.257a3.316,3.316,0,0,0,.763-.089,4.085,4.085,0,0,0,.551-.156V544.68a5.325,5.325,0,0,0-1.865-4.505A8.179,8.179,0,0,0,1253.261,538.744Zm24.519,2.008a6.738,6.738,0,0,0-2.326-1.484,8.073,8.073,0,0,0-2.947-.524,8.519,8.519,0,0,0-3.16.575,7.055,7.055,0,0,0-2.5,1.659,7.6,7.6,0,0,0-1.633,2.638,9.986,9.986,0,0,0-.585,3.543q0,4.225,2.4,6.424a9.257,9.257,0,0,0,6.516,2.2,10.84,10.84,0,0,0,2.184-.209,8.382,8.382,0,0,0,1.776-.559,3.99,3.99,0,0,0,1.207-.8,1.352,1.352,0,0,0,.443-.943,1.478,1.478,0,0,0-.851-1.326,7.96,7.96,0,0,1-1.917,1.046,7.1,7.1,0,0,1-2.7.491q-5.15,0-6.108-4.576l10.937-1.5a1.673,1.673,0,0,0,.993-.4,1.453,1.453,0,0,0,.356-1.1,7.374,7.374,0,0,0-.551-2.881A6.873,6.873,0,0,0,1277.78,540.752Zm-10.387,5.988a6.134,6.134,0,0,1,1.491-4.242,4.753,4.753,0,0,1,3.587-1.485,4.384,4.384,0,0,1,3.319,1.24,5.092,5.092,0,0,1,1.368,3.16Zm25.5,6.565a2.4,2.4,0,0,0-.39-.524,5.739,5.739,0,0,1-1.243.488,5.021,5.021,0,0,1-1.35.211,3.807,3.807,0,0,1-2.254-.578,2.267,2.267,0,0,1-.8-1.972v-9.079h5.079q1.063,0,1.065-1.186a1.907,1.907,0,0,0-.106-.647,2.634,2.634,0,0,0-.213-.471h-5.824v-4.016q0-1.257-1.491-1.257a3.476,3.476,0,0,0-.8.087,4.545,4.545,0,0,0-.551.156v16.587a4.078,4.078,0,0,0,1.545,3.595,6.875,6.875,0,0,0,4.03,1.084,5.518,5.518,0,0,0,2.557-.49,1.438,1.438,0,0,0,.924-1.257A1.467,1.467,0,0,0,1292.889,553.3Z" transform="translate(372.85 -320.151)" fill="#f2f2f4"/>
      <path id="Path_34" data-name="Path 34" d="M812.554,362.051a5.606,5.606,0,0,1,.408-2.138,5.183,5.183,0,0,1,1.155-1.75,5.646,5.646,0,0,1,1.789-1.19,6.244,6.244,0,0,1,4.631,0,5.748,5.748,0,0,1,1.811,1.191,5.3,5.3,0,0,1,1.178,1.75,5.707,5.707,0,0,1,.008,4.274,5.387,5.387,0,0,1-1.177,1.759,5.514,5.514,0,0,1-1.812,1.191,6.393,6.393,0,0,1-4.631,0,5.388,5.388,0,0,1-1.789-1.191,5.333,5.333,0,0,1-1.155-1.759A5.6,5.6,0,0,1,812.554,362.051Zm1.245,0a4.805,4.805,0,0,0,.324,1.771,4.128,4.128,0,0,0,.895,1.4,4.065,4.065,0,0,0,1.4.927,5.137,5.137,0,0,0,3.645,0,4.1,4.1,0,0,0,1.4-.924,4.14,4.14,0,0,0,.895-1.4,5.011,5.011,0,0,0,0-3.541,4.14,4.14,0,0,0-.895-1.4,4.1,4.1,0,0,0-1.4-.924,5.142,5.142,0,0,0-3.646,0,4.075,4.075,0,0,0-1.4.924,4.134,4.134,0,0,0-.894,1.4A4.829,4.829,0,0,0,813.8,362.051Zm3.759.6v1.781a3.156,3.156,0,0,1-.589.045.891.891,0,0,1-.43-.089c-.109-.059-.162-.2-.162-.423v-4.12c0-.212.165-.345.5-.4a4.844,4.844,0,0,1,.589-.089c.181-.014.377-.022.589-.022a2.9,2.9,0,0,1,1.7.434,1.561,1.561,0,0,1,.288,2.19,1.787,1.787,0,0,1-.809.535l1.294,1.559a.566.566,0,0,1-.226.318.706.706,0,0,1-.43.134.95.95,0,0,1-.748-.445l-.974-1.406Zm.725-.913c.573,0,.86-.259.86-.779a.6.6,0,0,0-.272-.523,1.252,1.252,0,0,0-.724-.189c-.109,0-.211,0-.306.011s-.191.019-.283.033v1.447Z" transform="translate(858.948 -106.449)" fill="#f2f2f4"/>
    </g>
  </g>
</svg>
