<svg xmlns="http://www.w3.org/2000/svg" viewBox="0 0 157.6 38.69"><defs><style>.cls-1{fill:#fff;}.cls-2{fill:#00b67a;}.cls-3{fill:#005128;}</style></defs><g id="Layer_2" data-name="Layer 2"><g id="Layer_1-2" data-name="Layer 1"><path class="cls-1" d="M41.42,13.71H57.37v3H51.09V33.41H47.65V16.68H41.4Zm15.26,5.44h3v2.76h0a3.29,3.29,0,0,1,.55-1.13A5.31,5.31,0,0,1,62.46,19a3.76,3.76,0,0,1,1.39-.29c.37,0,.63,0,.77,0a1.93,1.93,0,0,0,.42,0v3a6.72,6.72,0,0,0-.69-.1,5.06,5.06,0,0,0-.68-.05,3.7,3.7,0,0,0-1.5.31,3.89,3.89,0,0,0-1.23.92,5,5,0,0,0-.84,1.52,6.5,6.5,0,0,0-.32,2.11v6.77H56.63Zm22.8,14.26h-3.1v-2h0a4.39,4.39,0,0,1-1.73,1.74,4.54,4.54,0,0,1-2.34.66,5.18,5.18,0,0,1-4.07-1.4,6.08,6.08,0,0,1-1.26-4.2V19.15h3.15V27.9a3.77,3.77,0,0,0,.73,2.65,2.64,2.64,0,0,0,2,.79A3.85,3.85,0,0,0,74.49,31a2.82,2.82,0,0,0,1.08-.81,3.19,3.19,0,0,0,.6-1.24,5.88,5.88,0,0,0,.19-1.55V19.15h3.15V33.41Zm5.36-4.57a2.49,2.49,0,0,0,1,1.94,4.13,4.13,0,0,0,2.18.56,7.7,7.7,0,0,0,1-.08A4.25,4.25,0,0,0,90.12,31a1.87,1.87,0,0,0,.82-.57,1.35,1.35,0,0,0,.28-1,1.36,1.36,0,0,0-.44-1,3.49,3.49,0,0,0-1-.63,9.38,9.38,0,0,0-1.47-.4c-.56-.1-1.11-.23-1.69-.37a16.43,16.43,0,0,1-1.7-.47,4.77,4.77,0,0,1-1.47-.76,3.36,3.36,0,0,1-1-1.21A3.82,3.82,0,0,1,82,22.8a3,3,0,0,1,.58-1.94A4.11,4.11,0,0,1,84,19.59a6.76,6.76,0,0,1,1.94-.68,11.32,11.32,0,0,1,2-.18,9.52,9.52,0,0,1,2.1.23,5.24,5.24,0,0,1,1.81.77,4.15,4.15,0,0,1,1.34,1.36,4.65,4.65,0,0,1,.68,2H90.62a2,2,0,0,0-1-1.52,4.31,4.31,0,0,0-1.87-.39c-.21,0-.5,0-.79.05a4,4,0,0,0-.86.21,1.92,1.92,0,0,0-.69.45,1,1,0,0,0-.29.76,1.18,1.18,0,0,0,.4.92,3.54,3.54,0,0,0,1,.6,9.38,9.38,0,0,0,1.47.4c.55.1,1.13.23,1.71.36a16.12,16.12,0,0,1,1.68.48,4.56,4.56,0,0,1,1.47.76,3.72,3.72,0,0,1,1.05,1.18,3.66,3.66,0,0,1,.39,1.76,3.84,3.84,0,0,1-.57,2.15,5.06,5.06,0,0,1-1.5,1.45,7.25,7.25,0,0,1-2,.81,10.86,10.86,0,0,1-2.23.27,9.4,9.4,0,0,1-2.5-.32,6.41,6.41,0,0,1-2-.92A4.39,4.39,0,0,1,82.16,31a5,5,0,0,1-.52-2.21h3.18v0Zm10.38-9.69h2.39V14.84h3.15v4.28h2.84v2.34h-2.84v7.62c0,.34,0,.6,0,.86a1.91,1.91,0,0,0,.19.61,1,1,0,0,0,.44.37,2.55,2.55,0,0,0,.84.13,4.86,4.86,0,0,0,.66,0c.21,0,.45-.05.66-.1v2.44c-.35,0-.69.08-1,.1a5.71,5.71,0,0,1-1,.06,6.73,6.73,0,0,1-2-.24,2.87,2.87,0,0,1-1.18-.68,2.54,2.54,0,0,1-.58-1.13,8.94,8.94,0,0,1-.18-1.58v-8.4H95.22V19.15Zm10.58,0h3v1.94h0a3.86,3.86,0,0,1,1.84-1.78,6,6,0,0,1,2.58-.56,6.46,6.46,0,0,1,2.94.61A5.45,5.45,0,0,1,118.25,21a6.89,6.89,0,0,1,1.24,2.41,10.89,10.89,0,0,1,.42,3,10.6,10.6,0,0,1-.37,2.78,7.65,7.65,0,0,1-1.13,2.39,5.62,5.62,0,0,1-4.65,2.29,7.75,7.75,0,0,1-1.36-.14,5.56,5.56,0,0,1-1.32-.39,4.51,4.51,0,0,1-1.15-.71,4,4,0,0,1-.9-1h0v7.12h-3.15V19.15Zm11,7.14a6.48,6.48,0,0,0-.26-1.86,4.75,4.75,0,0,0-.77-1.6,4.12,4.12,0,0,0-1.23-1.13,3.36,3.36,0,0,0-1.71-.42,3.48,3.48,0,0,0-3,1.36,6.22,6.22,0,0,0-1,3.68,7,7,0,0,0,.26,2,4.55,4.55,0,0,0,.79,1.57,3.66,3.66,0,0,0,1.26,1.05,3.6,3.6,0,0,0,1.71.4,3.49,3.49,0,0,0,1.81-.45,4.16,4.16,0,0,0,1.23-1.13,4.52,4.52,0,0,0,.69-1.6A9.16,9.16,0,0,0,116.81,26.29Zm5.54-12.58h3.15v3h-3.15Zm0,5.44h3.15V33.41h-3.15Zm6-5.44h3.15v19.7h-3.15Zm12.77,20.1a7.58,7.58,0,0,1-3.05-.58,7.15,7.15,0,0,1-2.26-1.55,6.9,6.9,0,0,1-1.39-2.39,9.51,9.51,0,0,1-.5-3,8.59,8.59,0,0,1,.5-3,7.09,7.09,0,0,1,1.39-2.39A6.5,6.5,0,0,1,138,19.33a7.93,7.93,0,0,1,3.05-.58,7.61,7.61,0,0,1,3,.58,6.65,6.65,0,0,1,2.25,1.55,6.77,6.77,0,0,1,1.4,2.39,9.34,9.34,0,0,1,.5,3,8.62,8.62,0,0,1-.5,3,7.57,7.57,0,0,1-1.4,2.39,6.37,6.37,0,0,1-2.25,1.55A7.9,7.9,0,0,1,141.08,33.81Zm0-2.5a3.62,3.62,0,0,0,1.81-.45,3.76,3.76,0,0,0,1.26-1.15,5.19,5.19,0,0,0,.74-1.6,7.4,7.4,0,0,0,0-3.66,4.79,4.79,0,0,0-.74-1.6,4,4,0,0,0-1.26-1.13,3.67,3.67,0,0,0-1.81-.44,3.59,3.59,0,0,0-1.81.44A4,4,0,0,0,138,22.85a4.6,4.6,0,0,0-.74,1.6,7.1,7.1,0,0,0,0,3.66,4.69,4.69,0,0,0,.74,1.6,4.07,4.07,0,0,0,1.26,1.15A3.38,3.38,0,0,0,141.08,31.31Zm8.14-12.16h2.39V14.84h3.15v4.28h2.84v2.34h-2.84v7.62a7,7,0,0,0,.06.86,1.69,1.69,0,0,0,.18.61,1,1,0,0,0,.45.37,2.55,2.55,0,0,0,.84.13,4.72,4.72,0,0,0,.65,0c.21,0,.45-.05.66-.1v2.44c-.34,0-.68.08-1,.1a5.82,5.82,0,0,1-1,.06,6.73,6.73,0,0,1-2-.24,2.94,2.94,0,0,1-1.18-.68,2.43,2.43,0,0,1-.57-1.13,8.88,8.88,0,0,1-.19-1.58v-8.4h-2.39V19.15Z"/><path class="cls-2" d="M37.75,13.71H23.32L18.89,0,14.42,13.71,0,13.68l11.66,8.49L7.2,35.88,18.86,27.4l11.66,8.48L26.08,22.17Z"/><path class="cls-3" d="M27.08,25.27l-1-3.1L18.89,27.4Z"/></g></g></svg>